<svg viewBox="0 0 60 60" xmlns="http://www.w3.org/2000/svg"><path d="M11.15988 30.145064 10.020989 29.00812C6.489611 25.475715 5.396281 20.430448 6.733952 15.957225 3.203593 15.159417.566997 12.00293.566997 8.230471.56797 3.856339 4.113354.309634 8.486779.309634c3.937736.002045 7.202505 2.874551 7.816431 6.637811 4.273004-1.002108 8.949508.163445 12.281695 3.495632l.454582.454572-5.845121 5.842057-.453554-.455599c-1.895934-1.894916-4.970703-1.894916-6.868674.002045-1.904107 1.904107-1.900025 4.988067-.010218 6.877865l1.14308 1.141035 5.846139 5.840012 6.182211 6.179156-5.838984 5.844093-6.189366-6.181193-5.84512-5.842056Z" fill="#86BE3C"/><path d="m17.697582 23.612471 6.187329-6.183247 5.846139-5.838985 1.140008-1.137971c3.518105-3.517078 8.531708-4.624404 12.987567-3.315842.533227-3.856223 3.842941-6.826792 7.846264-6.826792 4.374131 0 7.921864 3.54466 7.920836 7.920837 0 4.019668-2.996106 7.341637-6.877865 7.8524 1.275871 4.439513.164463 9.417362-3.330142 12.915031l-.4556.456618-5.841029-5.84614.451509-.452526c1.897988-1.896961 1.897988-4.973767.001026-6.869701-1.890834-1.888789-4.95844-1.89287-6.862547.010218l-1.140017 1.13899-5.846139 5.842048-6.183239 6.177111-5.84512-5.842049Z" fill="#E4B645"/><path d="M44.015934 53.101503c-4.494668 1.382626-9.586935.295316-13.144876-3.262009l-.447418-.446918 5.840011-5.846237.448445.449472c1.897971 1.896953 4.974785 1.896953 6.870719.002037 1.889798-1.891844 1.893889-4.95844-.010217-6.863565l-1.142054-1.14308-5.841029-5.846139-6.172002-6.177111 5.846138-5.840012 6.166893 6.173029 5.838985 5.844094 1.148189 1.149207c3.35976 3.359769 4.520204 8.086327 3.475196 12.385886 3.847032.541409 6.806365 3.847032 6.806365 7.843201 0 4.375364-3.547732 7.9188-7.919818 7.9188-3.834777 0-7.032119-2.721422-7.763527-6.340655Z" fill="#C33734"/><path d="m41.737954 36.683793-6.165875 6.17302-5.841029 5.84512-1.146144 1.145528c-3.374069 3.375811-8.132291 4.522973-12.451259 3.451607-.807 3.519427-3.957359 6.140?" fill="#748EC4"/></svg>